<svg width="60" height="67" viewBox="0 0 60 67" fill="none" xmlns="http://www.w3.org/2000/svg">
<path d="M23.5289 26.8032C22.8386 28.805 22.4244 30.945 22.2864 33.1884H28.2229V26.8032H23.5289ZM24.5989 24.2146H28.2229V19.1063C26.7733 20.556 25.5653 22.2817 24.5989 24.2146ZM21.7687 24.2146C22.528 22.4543 23.4944 20.7976 24.6334 19.3134C21.6996 20.2453 19.18 22.0056 17.3507 24.2146H21.7687ZM43.444 26.8032H38.1978C38.819 28.805 39.1987 30.945 39.3022 33.1884H45.3769C45.2043 30.8759 44.514 28.736 43.444 26.8032ZM36.7136 33.1884C36.6101 30.945 36.1614 28.805 35.4711 26.8032H30.7771V33.1884H36.7136ZM34.4011 24.2146C33.4692 22.2817 32.2267 20.556 30.7771 19.1063V24.2146H34.4011ZM37.2313 24.2146H41.6493C39.7854 22.0401 37.2659 20.2453 34.3666 19.3134C35.5056 20.7976 36.472 22.4543 37.2313 24.2146ZM15.556 42.1623H20.8022C20.181 40.1604 19.8013 38.0205 19.6978 35.7771H13.6231C13.8302 38.0896 14.486 40.264 15.556 42.1623ZM22.2864 35.7771C22.3899 38.0205 22.8386 40.1604 23.5289 42.1623H28.2229V35.7771H22.2864ZM24.5989 44.7509C25.5653 46.6838 26.8078 48.4095 28.2229 49.8591V44.7509H24.5989ZM21.7687 44.7509H17.3162C19.18 46.9254 21.6996 48.7201 24.5989 49.6521C23.4944 48.2024 22.528 46.5457 21.7687 44.7509ZM38.1978 42.1623H43.444C44.514 40.2295 45.1698 38.0896 45.3769 35.7771H39.3022C39.1987 38.0205 38.819 40.1604 38.1978 42.1623ZM35.4711 42.1623C36.1614 40.1604 36.5756 38.0205 36.7136 35.7771H30.7771V42.1623H35.4711ZM34.4011 44.7509H30.7771V49.8591C32.2267 48.444 33.4692 46.7183 34.4011 44.7509ZM37.2313 44.7509C36.472 46.5112 35.5056 48.1679 34.3666 49.6521C37.3004 48.7201 39.82 46.9599 41.6493 44.7509H37.2313ZM20.8022 26.8032H15.556C14.486 28.736 13.8302 30.9104 13.6231 33.1884H19.6978C19.8358 30.9795 20.2155 28.805 20.8022 26.8032ZM29.5 53C19.2836 53 11 44.7164 11 34.5C11 24.2836 19.2836 16 29.5 16C39.7164 16 48 24.2836 48 34.5C48 44.7164 39.7164 53 29.5 53Z" fill="#E4E4E4"/>
</svg>
