<svg width="84" height="36" viewBox="0 0 84 36" fill="none" xmlns="http://www.w3.org/2000/svg">
<path d="M26.5899 17.28C28.6592 17.9314 30.2801 19.0286 31.4527 20.5714C32.6253 22.08 33.2116 23.9486 33.2116 26.1771C33.2116 29.3314 31.97 31.7657 29.4869 33.48C27.0383 35.16 23.4516 36 18.7268 36H0V0H17.6921C22.1066 0 25.4863 0.839999 27.8315 2.52C30.2111 4.2 31.401 6.48 31.401 9.36C31.401 11.1086 30.9699 12.6686 30.1077 14.04C29.28 15.4114 28.1074 16.4914 26.5899 17.28ZM8.32875 6.27429V14.76H16.6575C18.7268 14.76 20.2959 14.4 21.3651 13.68C22.4342 12.96 22.9687 11.8971 22.9687 10.4914C22.9687 9.08572 22.4342 8.04 21.3651 7.35429C20.2959 6.63429 18.7268 6.27429 16.6575 6.27429H8.32875ZM18.106 29.7257C20.3132 29.7257 21.9686 29.3657 23.0722 28.6457C24.2103 27.9257 24.7793 26.8114 24.7793 25.3029C24.7793 22.32 22.5549 20.8286 18.106 20.8286H8.32875V29.7257H18.106ZM39.5564 0H47.9369V36H39.5564V0ZM64.0317 6.78857H52.4439V0H84V6.78857H72.4122V36H64.0317V6.78857Z" fill="#497DE6"/>
</svg>
