<svg width="190" height="190" viewBox="0 0 190 190" fill="none" xmlns="http://www.w3.org/2000/svg">
<g clip-path="url(#clip0_362_262)">
<g filter="url(#filter0_ddddii_362_262)">
<path d="M166.25 35.6249C115.841 35.6249 99.9875 14.6062 99.8688 14.428C99.3231 13.6415 98.5954 12.9986 97.7477 12.554C96.8999 12.1095 95.9572 11.8765 95 11.8749C94.0328 11.8273 93.0699 12.0322 92.2058 12.4695C91.3418 12.9067 90.6064 13.5612 90.0719 14.3687C90.0719 14.3687 74.1594 35.6249 23.75 35.6249C22.1753 35.6249 20.6651 36.2505 19.5516 37.364C18.4381 38.4775 17.8125 39.9877 17.8125 41.5624V93.5749C17.8125 148.497 60.0281 164.825 85.2031 174.681L92.7438 177.65C93.4545 177.964 94.223 178.126 95 178.126C95.777 178.126 96.5455 177.964 97.2562 177.65L104.737 174.681C129.972 164.884 172.188 148.437 172.188 93.5749V41.5624C172.188 39.9877 171.562 38.4775 170.448 37.364C169.335 36.2505 167.825 35.6249 166.25 35.6249Z" fill="#262626"/>
<path d="M94.8772 14.3719L94.9365 14.3748L94.9959 14.3749C95.5501 14.3758 96.0958 14.5107 96.5866 14.7681C97.0774 15.0255 97.4987 15.3977 97.8146 15.853L97.8149 15.8528C98.7779 17.2102 115.635 38.1249 166.25 38.1249C167.162 38.1249 168.036 38.4871 168.681 39.1317C169.325 39.7764 169.688 40.6507 169.688 41.5624V93.5749C169.688 120.252 159.47 137.412 146.264 149.16C132.939 161.013 116.492 167.436 103.833 172.351L103.824 172.354L103.815 172.357L96.3341 175.326L96.2895 175.344L96.2456 175.363C95.8532 175.537 95.429 175.626 95 175.626C94.571 175.626 94.1468 175.537 93.7544 175.363L93.7074 175.343L93.6596 175.324L86.119 172.355L86.1145 172.353L85.9687 172.296C73.3513 167.356 56.9953 160.953 43.7282 149.159C30.5303 137.427 20.3125 120.282 20.3125 93.5749V41.5624C20.3125 40.6507 20.6747 39.7764 21.3193 39.1317C21.964 38.4871 22.8383 38.1249 23.75 38.1249C49.3179 38.1249 66.2974 32.7311 76.9625 27.2176C82.2891 24.4639 86.0194 21.6912 88.4434 19.5721C89.6548 18.513 90.5385 17.6184 91.1313 16.9727C91.4277 16.6498 91.6513 16.3892 91.8068 16.2014C91.8845 16.1075 91.9452 16.0318 91.9894 15.9756C92.0115 15.9475 92.0295 15.9243 92.0434 15.9061L92.0613 15.8826L92.068 15.8738L92.0708 15.8701C92.072 15.8684 92.0732 15.8669 90.0719 14.3687L92.0732 15.8669L92.1166 15.8089L92.1565 15.7486C92.4516 15.3028 92.8576 14.9415 93.3346 14.7001C93.8116 14.4587 94.3432 14.3456 94.8772 14.3719Z" stroke="#3F71D4" stroke-width="5"/>
</g>
<path d="M103.14 81.6623H87.2131C86.1571 81.6623 83.9779 83.8247 83.2312 83.078C82.4845 82.3313 83.2314 75.109 83.2314 74.053L83.0545 77.6807C83.0545 74.5127 84.313 71.4745 86.553 69.2344C88.7931 66.9943 91.8314 65.7358 94.9993 65.7358C98.1673 65.7358 101.206 66.9943 103.446 69.2344C105.686 71.4745 106.944 74.5127 106.944 77.6807V81.6623C107.691 80.9156 106.944 82.7183 106.944 81.6623C106.197 82.409 104.196 81.6623 103.14 81.6623ZM91.0177 81.6623H98.981V77.6807C98.981 76.6247 98.5615 75.612 97.8148 74.8653C97.0681 74.1186 96.0553 73.6991 94.9993 73.6991C93.9433 73.6991 92.9306 74.1186 92.1839 74.8653C91.4372 75.612 91.0177 76.6247 91.0177 77.6807V81.6623Z" fill="#3F71D4"/>
<path d="M106.945 81.3086H83.0552C76.4582 81.3086 71.1104 86.6565 71.1104 93.2534V117.143C71.1104 123.74 76.4582 129.088 83.0552 129.088H106.945C113.542 129.088 118.89 123.74 118.89 117.143V93.2534C118.89 86.6565 113.542 81.3086 106.945 81.3086Z" fill="#3F71D4"/>
<path d="M102.962 101.217C102.971 99.8169 102.61 98.4395 101.917 97.2236C101.223 96.0076 100.221 94.9959 99.0121 94.2905C97.8029 93.5851 96.4292 93.2109 95.0294 93.2056C93.6295 93.2003 92.253 93.5642 91.0386 94.2605C89.8242 94.9567 88.8147 95.9608 88.1121 97.1715C87.4094 98.3823 87.0383 99.7568 87.0361 101.157C87.034 102.557 87.4009 103.932 88.0999 105.145C88.7989 106.358 89.8053 107.365 91.0176 108.065V113.162C91.0176 114.218 91.4371 115.23 92.1838 115.977C92.9305 116.724 93.9432 117.143 94.9992 117.143C96.0552 117.143 97.068 116.724 97.8147 115.977C98.5613 115.23 98.9808 114.218 98.9808 113.162V108.065C100.184 107.37 101.185 106.373 101.884 105.171C102.582 103.97 102.954 102.606 102.962 101.217Z" fill="#262626"/>
<path d="M94.9992 61.4006C93.9432 61.4006 92.9305 60.9811 92.1838 60.2344C91.4371 59.4877 91.0176 58.475 91.0176 57.419V49.4557C91.0176 48.3997 91.4371 47.387 92.1838 46.6403C92.9305 45.8936 93.9432 45.4741 94.9992 45.4741C96.0552 45.4741 97.0679 45.8936 97.8146 46.6403C98.5613 47.387 98.9808 48.3997 98.9808 49.4557V57.419C98.9808 58.475 98.5613 59.4877 97.8146 60.2344C97.0679 60.9811 96.0552 61.4006 94.9992 61.4006Z" fill="#3F71D4"/>
<path d="M114.908 81.3085C114.384 81.3115 113.865 81.2111 113.379 81.013C112.894 80.8148 112.453 80.5229 112.081 80.1538C111.708 79.7837 111.412 79.3433 111.21 78.8581C111.007 78.3729 110.903 77.8525 110.903 77.3269C110.903 76.8013 111.007 76.2809 111.21 75.7957C111.412 75.3105 111.708 74.8701 112.081 74.4999L126.853 59.768V53.4372C126.853 52.3812 127.272 51.3685 128.019 50.6218C128.766 49.8751 129.779 49.4556 130.835 49.4556C131.89 49.4556 132.903 49.8751 133.65 50.6218C134.397 51.3685 134.816 52.3812 134.816 53.4372V61.4004C134.819 61.9244 134.719 62.4439 134.521 62.929C134.322 63.4141 134.03 63.8553 133.661 64.2274L117.735 80.1538C117.363 80.5229 116.922 80.8148 116.437 81.013C115.951 81.2111 115.432 81.3115 114.908 81.3085Z" fill="#3F71D4"/>
<path d="M75.0917 81.3085C74.5677 81.3115 74.0483 81.2111 73.5632 81.013C73.0781 80.8148 72.6368 80.5229 72.2648 80.1538L56.3383 64.2274C55.9693 63.8553 55.6774 63.4141 55.4792 62.929C55.2811 62.4439 55.1806 61.9244 55.1837 61.4004V53.4372C55.1837 52.3812 55.6032 51.3685 56.3498 50.6218C57.0965 49.8751 58.1093 49.4556 59.1653 49.4556C60.2213 49.4556 61.234 49.8751 61.9807 50.6218C62.7274 51.3685 63.1469 52.3812 63.1469 53.4372V59.768L77.9187 74.4999C78.2919 74.8701 78.5881 75.3105 78.7902 75.7957C78.9924 76.2809 79.0965 76.8013 79.0965 77.3269C79.0965 77.8525 78.9924 78.3729 78.7902 78.8581C78.5881 79.3433 78.2919 79.7837 77.9187 80.1538C77.5467 80.5229 77.1054 80.8148 76.6203 81.013C76.1352 81.2111 75.6158 81.3115 75.0917 81.3085Z" fill="#3F71D4"/>
<path d="M130.834 145.014C129.778 145.014 128.765 144.595 128.019 143.848C127.272 143.102 126.853 142.089 126.853 141.033V134.702L120.044 127.933C119.294 127.183 118.873 126.167 118.873 125.106C118.873 124.046 119.294 123.029 120.044 122.279C120.794 121.53 121.811 121.108 122.871 121.108C123.931 121.108 124.948 121.53 125.698 122.279L133.661 130.243C134.03 130.615 134.322 131.056 134.52 131.541C134.718 132.026 134.819 132.546 134.816 133.07V141.033C134.816 142.089 134.396 143.102 133.65 143.848C132.903 144.595 131.89 145.014 130.834 145.014Z" fill="#3F71D4"/>
<path d="M59.1653 145.014C58.1093 145.014 57.0965 144.595 56.3498 143.848C55.6032 143.102 55.1837 142.089 55.1837 141.033V133.07C55.1806 132.546 55.2811 132.026 55.4792 131.541C55.6774 131.056 55.9693 130.615 56.3383 130.243L64.3016 122.279C64.6728 121.908 65.1135 121.614 65.5986 121.413C66.0836 121.212 66.6035 121.108 67.1285 121.108C67.6535 121.108 68.1734 121.212 68.6584 121.413C69.1435 121.614 69.5842 121.908 69.9555 122.279C70.3267 122.651 70.6212 123.091 70.8221 123.576C71.023 124.061 71.1264 124.581 71.1264 125.106C71.1264 125.631 71.023 126.151 70.8221 126.636C70.6212 127.121 70.3267 127.562 69.9555 127.933L63.1469 134.702V141.033C63.1469 142.089 62.7274 143.102 61.9807 143.848C61.234 144.595 60.2213 145.014 59.1653 145.014Z" fill="#3F71D4"/>
<path d="M94.9992 148.996C93.9432 148.996 92.9305 148.576 92.1838 147.83C91.4371 147.083 91.0176 146.07 91.0176 145.014V137.051C91.0176 135.995 91.4371 134.982 92.1838 134.236C92.9305 133.489 93.9432 133.069 94.9992 133.069C96.0552 133.069 97.0679 133.489 97.8146 134.236C98.5613 134.982 98.9808 135.995 98.9808 137.051V145.014C98.9808 146.07 98.5613 147.083 97.8146 147.83C97.0679 148.576 96.0552 148.996 94.9992 148.996Z" fill="#3F71D4"/>
<path d="M142.779 101.217H126.853C125.797 101.217 124.784 100.797 124.037 100.05C123.291 99.3038 122.871 98.291 122.871 97.235C122.871 96.179 123.291 95.1663 124.037 94.4196C124.784 93.6729 125.797 93.2534 126.853 93.2534H142.779C143.835 93.2534 144.848 93.6729 145.595 94.4196C146.341 95.1663 146.761 96.179 146.761 97.235C146.761 98.291 146.341 99.3038 145.595 100.05C144.848 100.797 143.835 101.217 142.779 101.217Z" fill="#3F71D4"/>
<path d="M63.1464 101.217H47.2199C46.1639 101.217 45.1512 100.797 44.4045 100.05C43.6578 99.3038 43.2383 98.291 43.2383 97.235C43.2383 96.179 43.6578 95.1663 44.4045 94.4196C45.1512 93.6729 46.1639 93.2534 47.2199 93.2534H63.1464C64.2024 93.2534 65.2151 93.6729 65.9618 94.4196C66.7085 95.1663 67.128 96.179 67.128 97.235C67.128 98.291 66.7085 99.3038 65.9618 100.05C65.2151 100.797 64.2024 101.217 63.1464 101.217V101.217Z" fill="#3F71D4"/>
<path d="M130.834 57.4186C128.991 57.4264 127.203 56.7948 125.773 55.6316C124.344 54.4683 123.363 52.8454 122.996 51.0395C122.63 49.2336 122.901 47.3564 123.763 45.728C124.626 44.0996 126.026 42.8207 127.726 42.1094C129.426 41.3981 131.32 41.2983 133.085 41.8272C134.851 42.356 136.378 43.4807 137.407 45.0095C138.436 46.5383 138.902 48.3766 138.727 50.2111C138.553 52.0455 137.747 53.7625 136.448 55.0694C134.961 56.5649 132.942 57.4097 130.834 57.4186V57.4186Z" fill="#3F71D4"/>
<path d="M59.1648 57.4186C57.322 57.4264 55.5337 56.7948 54.1044 55.6316C52.6752 54.4683 51.6937 52.8454 51.3271 51.0395C50.9606 49.2336 51.2317 47.3564 52.0942 45.728C52.9568 44.0996 54.3574 42.8207 56.0573 42.1094C57.7573 41.3981 59.6513 41.2983 61.4165 41.8272C63.1818 42.356 64.709 43.4807 65.7378 45.0095C66.7666 46.5383 67.2334 48.3766 67.0585 50.2111C66.8837 52.0455 66.078 53.7625 64.7789 55.0694C63.2923 56.5649 61.2734 57.4097 59.1648 57.4186Z" fill="#3F71D4"/>
<path d="M130.834 152.978C128.991 152.985 127.203 152.354 125.773 151.191C124.344 150.027 123.363 148.404 122.996 146.599C122.63 144.793 122.901 142.915 123.763 141.287C124.626 139.659 126.026 138.38 127.726 137.668C129.426 136.957 131.32 136.857 133.085 137.386C134.851 137.915 136.378 139.04 137.407 140.569C138.436 142.097 138.902 143.936 138.727 145.77C138.553 147.605 137.747 149.322 136.448 150.628C134.961 152.124 132.942 152.969 130.834 152.978V152.978Z" fill="#3F71D4"/>
<path d="M59.1648 152.978C57.322 152.985 55.5337 152.354 54.1044 151.191C52.6752 150.027 51.6937 148.404 51.3271 146.599C50.9606 144.793 51.2317 142.915 52.0942 141.287C52.9568 139.659 54.3574 138.38 56.0573 137.668C57.7573 136.957 59.6513 136.857 61.4165 137.386C63.1818 137.915 64.709 139.04 65.7378 140.569C66.7666 142.097 67.2334 143.936 67.0585 145.77C66.8837 147.605 66.078 149.322 64.7789 150.628C63.2923 152.124 61.2734 152.969 59.1648 152.978V152.978Z" fill="#3F71D4"/>
<path d="M146.761 105.198C151.159 105.198 154.724 101.633 154.724 97.2352C154.724 92.8372 151.159 89.272 146.761 89.272C142.363 89.272 138.798 92.8372 138.798 97.2352C138.798 101.633 142.363 105.198 146.761 105.198Z" fill="#3F71D4"/>
<path d="M43.2386 105.198C47.6366 105.198 51.2019 101.633 51.2019 97.2352C51.2019 92.8372 47.6366 89.272 43.2386 89.272C38.8407 89.272 35.2754 92.8372 35.2754 97.2352C35.2754 101.633 38.8407 105.198 43.2386 105.198Z" fill="#3F71D4"/>
<path d="M94.9994 156.959C93.4244 156.959 91.8848 156.492 90.5752 155.617C89.2657 154.742 88.245 153.498 87.6423 152.043C87.0396 150.588 86.8819 148.987 87.1891 147.442C87.4964 145.898 88.2548 144.479 89.3685 143.365C90.4822 142.251 91.9011 141.493 93.4458 141.186C94.9905 140.878 96.5917 141.036 98.0468 141.639C99.5019 142.242 100.746 143.262 101.621 144.572C102.496 145.881 102.963 147.421 102.963 148.996C102.963 151.108 102.124 153.133 100.63 154.627C99.1368 156.12 97.1114 156.959 94.9994 156.959V156.959Z" fill="#3F71D4"/>
<path d="M94.9994 53.4372C93.4244 53.4372 91.8848 52.9702 90.5752 52.0952C89.2657 51.2202 88.245 49.9765 87.6423 48.5214C87.0396 47.0663 86.8819 45.4651 87.1891 43.9204C87.4964 42.3757 88.2548 40.9568 89.3685 39.8431C90.4822 38.7294 91.9011 37.971 93.4458 37.6638C94.9905 37.3565 96.5917 37.5142 98.0468 38.1169C99.5019 38.7196 100.746 39.7403 101.621 41.0498C102.496 42.3594 102.963 43.899 102.963 45.474C102.963 47.586 102.124 49.6114 100.63 51.1048C99.1368 52.5982 97.1114 53.4372 94.9994 53.4372V53.4372Z" fill="#3F71D4"/>
</g>
<defs>
<filter id="filter0_ddddii_362_262" x="-3.1875" y="-9.13184" width="200.375" height="212.258" filterUnits="userSpaceOnUse" color-interpolation-filters="sRGB">
<feFlood flood-opacity="0" result="BackgroundImageFix"/>
<feColorMatrix in="SourceAlpha" type="matrix" values="0 0 0 0 0 0 0 0 0 0 0 0 0 0 0 0 0 0 127 0" result="hardAlpha"/>
<feOffset dx="7" dy="7"/>
<feGaussianBlur stdDeviation="9"/>
<feColorMatrix type="matrix" values="0 0 0 0 0.0588235 0 0 0 0 0.0588235 0 0 0 0 0.0588235 0 0 0 0.9 0"/>
<feBlend mode="normal" in2="BackgroundImageFix" result="effect1_dropShadow_362_262"/>
<feColorMatrix in="SourceAlpha" type="matrix" values="0 0 0 0 0 0 0 0 0 0 0 0 0 0 0 0 0 0 127 0" result="hardAlpha"/>
<feOffset dx="-7" dy="-7"/>
<feGaussianBlur stdDeviation="7"/>
<feColorMatrix type="matrix" values="0 0 0 0 0.239216 0 0 0 0 0.239216 0 0 0 0 0.239216 0 0 0 0.9 0"/>
<feBlend mode="normal" in2="effect1_dropShadow_362_262" result="effect2_dropShadow_362_262"/>
<feColorMatrix in="SourceAlpha" type="matrix" values="0 0 0 0 0 0 0 0 0 0 0 0 0 0 0 0 0 0 127 0" result="hardAlpha"/>
<feOffset dx="7" dy="-7"/>
<feGaussianBlur stdDeviation="7"/>
<feColorMatrix type="matrix" values="0 0 0 0 0.0588235 0 0 0 0 0.0588235 0 0 0 0 0.0588235 0 0 0 0.2 0"/>
<feBlend mode="normal" in2="effect2_dropShadow_362_262" result="effect3_dropShadow_362_262"/>
<feColorMatrix in="SourceAlpha" type="matrix" values="0 0 0 0 0 0 0 0 0 0 0 0 0 0 0 0 0 0 127 0" result="hardAlpha"/>
<feOffset dx="-7" dy="7"/>
<feGaussianBlur stdDeviation="7"/>
<feColorMatrix type="matrix" values="0 0 0 0 0.0588235 0 0 0 0 0.0588235 0 0 0 0 0.0588235 0 0 0 0.2 0"/>
<feBlend mode="normal" in2="effect3_dropShadow_362_262" result="effect4_dropShadow_362_262"/>
<feBlend mode="normal" in="SourceGraphic" in2="effect4_dropShadow_362_262" result="shape"/>
<feColorMatrix in="SourceAlpha" type="matrix" values="0 0 0 0 0 0 0 0 0 0 0 0 0 0 0 0 0 0 127 0" result="hardAlpha"/>
<feOffset dx="-1" dy="-1"/>
<feGaussianBlur stdDeviation="1"/>
<feComposite in2="hardAlpha" operator="arithmetic" k2="-1" k3="1"/>
<feColorMatrix type="matrix" values="0 0 0 0 0.0588235 0 0 0 0 0.0588235 0 0 0 0 0.0588235 0 0 0 0.5 0"/>
<feBlend mode="normal" in2="shape" result="effect5_innerShadow_362_262"/>
<feColorMatrix in="SourceAlpha" type="matrix" values="0 0 0 0 0 0 0 0 0 0 0 0 0 0 0 0 0 0 127 0" result="hardAlpha"/>
<feOffset dx="1" dy="1"/>
<feGaussianBlur stdDeviation="1"/>
<feComposite in2="hardAlpha" operator="arithmetic" k2="-1" k3="1"/>
<feColorMatrix type="matrix" values="0 0 0 0 0.239216 0 0 0 0 0.239216 0 0 0 0 0.239216 0 0 0 0.3 0"/>
<feBlend mode="normal" in2="effect5_innerShadow_362_262" result="effect6_innerShadow_362_262"/>
</filter>
<clipPath id="clip0_362_262">
<rect width="190" height="190" fill="white"/>
</clipPath>
</defs>
</svg>
