<svg width="885" height="46" viewBox="0 0 885 46" fill="none" xmlns="http://www.w3.org/2000/svg">
<path fill-rule="evenodd" clip-rule="evenodd" d="M246.355 25.601C227.803 13.1061 204.737 0 182.385 0C177.609 0 173.402 1.88699 169.533 4.87047C166.234 7.40345 163.18 10.7694 160.143 14.1609C157.462 17.1444 154.799 20.1534 151.889 22.3973C149.557 24.1993 147.088 25.4998 144.212 25.4998C134.958 25.4998 127.111 19.3969 119.137 13.5659C109.662 6.64696 100.06 0 89.0745 0C79.7689 0 72.2107 6.77446 64.8901 13.9654C61.8278 16.9829 58.7825 20.0089 55.5167 22.2698C52.7852 24.1568 49.9096 25.4998 46.6607 25.4998C39.2637 25.4998 32.4436 22.2698 26.0984 17.8499C19.2274 13.0559 12.9332 6.84246 7.21581 1.2155C5.54471 -0.424984 2.85567 -0.399484 1.2185 1.275C-0.427155 2.94949 -0.401706 5.64396 1.2694 7.28445C7.31761 13.2259 13.9935 19.7624 21.2548 24.8283C29.0589 30.2683 37.5587 33.9998 46.6607 33.9998C55.9578 33.9998 63.5244 27.2253 70.8365 20.0344C73.8988 17.0254 76.9441 13.9909 80.21 11.7299C82.9414 9.85144 85.8171 8.49994 89.0745 8.49994C98.3207 8.49994 106.167 14.6029 114.141 20.4339C123.616 27.3613 133.219 33.9998 144.212 33.9998C148.98 33.9998 153.187 32.1213 157.064 29.1378C160.355 26.5963 163.409 23.2303 166.446 19.8389C169.135 16.8554 171.798 13.8464 174.699 11.6024C177.032 9.80894 179.509 8.49994 182.385 8.49994C203.1 8.49994 224.427 21.0706 241.621 32.656C243.564 33.965 246.194 33.4465 247.5 31.5C248.806 29.5535 248.297 26.91 246.355 25.601Z" fill="white"/>
<path fill-rule="evenodd" clip-rule="evenodd" d="M673.355 34.601C654.803 22.1061 631.737 9 609.385 9C604.609 9 600.402 10.887 596.534 13.8705C593.234 16.4034 590.18 19.7694 587.143 23.1609C584.463 26.1444 581.799 29.1534 578.889 31.3973C576.557 33.1993 574.088 34.4998 571.213 34.4998C561.958 34.4998 554.111 28.3969 546.138 22.5659C536.662 15.647 527.06 9 516.075 9C506.769 9 499.211 15.7745 491.89 22.9654C488.828 25.9829 485.783 29.0089 482.517 31.2698C479.785 33.1568 476.91 34.4998 473.661 34.4998C466.264 34.4998 459.444 31.2698 453.099 26.8499C446.228 22.0559 436.717 20.127 431 14.5C429.329 12.8595 426.637 11.8255 425 13.5C423.354 15.1745 426.598 14.644 428.27 16.2845C434.318 22.2259 440.994 28.7624 448.255 33.8283C456.059 39.2683 464.559 42.9998 473.661 42.9998C482.958 42.9998 490.525 36.2253 497.837 29.0344C500.899 26.0254 503.944 22.9909 507.21 20.7299C509.942 18.8514 512.817 17.4999 516.075 17.4999C525.321 17.4999 533.167 23.6029 541.141 29.4339C550.616 36.3613 560.219 42.9998 571.213 42.9998C575.98 42.9998 580.187 41.1213 584.064 38.1378C587.355 35.5963 590.409 32.2303 593.446 28.8389C596.135 25.8554 598.798 22.8464 601.7 20.6024C604.032 18.8089 606.509 17.4999 609.385 17.4999C630.1 17.4999 651.427 30.0706 668.622 41.656C670.564 42.965 673.194 42.4465 674.5 40.5C675.806 38.5535 675.297 35.91 673.355 34.601Z" fill="white"/>
<path fill-rule="evenodd" clip-rule="evenodd" d="M456.13 29.2223C437.578 16.7274 416.736 3 394.384 3C389.608 3 385.4 4.88699 381.532 7.87047C378.233 10.4034 375.179 13.7694 372.142 17.1609C369.461 20.1444 366.798 23.1534 363.888 25.3973C361.555 27.1993 359.087 28.4998 356.211 28.4998C346.957 28.4998 339.109 22.3969 331.135 16.5659C321.66 9.64696 312.058 3 301.072 3C291.767 3 284.209 9.77446 276.889 16.9654C273.826 19.9829 270.781 23.0089 267.515 25.2698C264.784 27.1568 261.908 28.4998 258.659 28.4998C251.262 28.4998 244.442 25.2698 238.097 20.8499C231.226 16.0559 233.217 20.127 227.5 14.5C225.829 12.8595 223.64 12.385 222.003 14.0595C220.357 15.734 221.328 18.0894 222.999 19.7299C229.048 25.6714 225.992 22.7624 233.253 27.8283C241.057 33.2683 249.557 36.9998 258.659 36.9998C267.956 36.9998 275.523 30.2253 282.835 23.0344C285.897 20.0254 288.942 16.9909 292.208 14.7299C294.939 12.8514 297.815 11.4999 301.072 11.4999C310.319 11.4999 318.165 17.6029 326.139 23.4339C335.614 30.3613 345.218 36.9998 356.211 36.9998C360.979 36.9998 365.186 35.1213 369.063 32.1378C372.354 29.5963 375.408 26.2303 378.445 22.8389C381.134 19.8554 383.797 16.8464 386.698 14.6024C389.031 12.8089 391.508 11.4999 394.384 11.4999C415.099 11.4999 434.202 24.6919 451.396 36.2773C453.339 37.5863 455.969 37.0678 457.275 35.1213C458.581 33.1748 458.072 30.5313 456.13 29.2223Z" fill="white"/>
<path fill-rule="evenodd" clip-rule="evenodd" d="M883.13 38.2223C864.578 25.7274 843.736 12 821.384 12C816.608 12 812.4 13.887 808.532 16.8705C805.233 19.4034 802.179 22.7694 799.142 26.1609C796.461 29.1444 793.798 32.1534 790.888 34.3973C788.555 36.1993 786.087 37.4998 783.211 37.4998C773.957 37.4998 766.109 31.3969 758.135 25.5659C748.66 18.647 739.058 12 728.072 12C718.767 12 711.209 18.7745 703.889 25.9654C700.826 28.9829 697.781 32.0089 694.515 34.2698C691.784 36.1568 688.908 37.4998 685.659 37.4998C678.262 37.4998 671.442 34.2698 665.097 29.8499C658.226 25.0559 660.217 29.127 654.5 23.5C652.829 21.8595 650.64 21.385 649.003 23.0595C647.357 24.734 648.328 27.0894 649.999 28.7299C656.048 34.6714 652.992 31.7624 660.253 36.8283C668.057 42.2683 676.557 45.9998 685.659 45.9998C694.956 45.9998 702.523 39.2253 709.835 32.0344C712.897 29.0254 715.942 25.9909 719.208 23.7299C721.939 21.8514 724.815 20.4999 728.072 20.4999C737.319 20.4999 745.165 26.6029 753.139 32.4339C762.614 39.3613 772.218 45.9998 783.211 45.9998C787.979 45.9998 792.186 44.1213 796.063 41.1378C799.354 38.5963 802.408 35.2303 805.445 31.8389C808.134 28.8554 810.797 25.8464 813.698 23.6024C816.031 21.8089 818.508 20.4999 821.384 20.4999C842.099 20.4999 861.202 33.6919 878.396 45.2773C880.339 46.5863 882.969 46.0678 884.275 44.1213C885.581 42.1748 885.072 39.5313 883.13 38.2223Z" fill="white"/>
</svg>
